<?xml version="1.0" standalone="no"?><!DOCTYPE svg PUBLIC "-//W3C//DTD SVG 1.1//EN" "http://www.w3.org/Graphics/SVG/1.1/DTD/svg11.dtd"><svg t="1608294220415" class="icon" viewBox="0 0 1024 1024" version="1.1" xmlns="http://www.w3.org/2000/svg" p-id="6945" xmlns:xlink="http://www.w3.org/1999/xlink" width="200" height="200"><defs><style type="text/css"></style></defs><path d="M488.3 699.8c0.1 0.1 0.2 0.2 0.3 0.4 4.1 11.3-20 261.1-17.4 259.8 2.6-1.4 96.1-2.7 96.1-2.7L541 701.2h-0.6l0.6-1.3-26.3-36.8-25.9 36.1c-0.9 0.1-1.1 0.3-0.5 0.6zM338.4 397.7c26.2 70.8 80 121.9 156.7 121.9 85.5 0 154.3-53.8 173.2-135.3 33.3-6.7 45.1-36.5 45.1-68.5 0-23.2-14.7-43.6-36.9-55.3-0.1-94.1-22.8-198-181.3-196.4C321 65.7 308.3 182.2 315.9 273.3c-21.3 11.9-35.3 31.9-35.3 54.5 0 35.8 14.7 68.7 57.8 69.9zM637.3 952.2C847.7 939.6 935.8 909 935.8 909c-1.6-122.8-94.9-185.7-94.9-185.7-67.3-31.7-110.8-55.2-148.5-66.9-26 13.8-75.8 39.9-105.7 54.4l50.6 241.4zM327.8 651.4c-76.5 15.4-155 71-155 71-80.9 70.5-84.6 190.3-84.6 190.3 96 28.1 230.1 38.5 316.4 42.4l38.9-236.8 4.8-4.9c-29.2-15.5-97.2-50.2-120.5-62z" p-id="6946"></path><path d="M391 554.4l-31.4 61 97.1 52.9 57.9-63.1 52.6 63.1 91.7-45.8-32.4-68.1c0.1 0-127.7 62.7-235.5 0z" p-id="6947"></path></svg>