<?xml version="1.0" standalone="no"?><!DOCTYPE svg PUBLIC "-//W3C//DTD SVG 1.1//EN" "http://www.w3.org/Graphics/SVG/1.1/DTD/svg11.dtd"><svg t="1608294216622" class="icon" viewBox="0 0 1024 1024" version="1.1" xmlns="http://www.w3.org/2000/svg" p-id="6805" xmlns:xlink="http://www.w3.org/1999/xlink" width="200" height="200"><defs><style type="text/css"></style></defs><path d="M498.6 88.9c-32.3-9.5-70.3-2.9-70.3-2.9-65.7 5.1-115.1 63.4-115.1 63.4-7.4 16.2-12.2 31.8-15.1 46.5l-3.7-3.7-51.2 179.1s-121.6 86.4-128 102.4 124.8 147.2 256 76.8L320 396.8v-82.4c82.3 15.4 165.7-89.8 165.7-89.8 56 87.4 155.4 129 192.4 142v30.1L627 550.4c131.2 70.4 262.4-60.8 256-76.8S755 371.2 755 371.2L703.8 192l-9.4 9.5c-8.4-36.3-19.2-58.7-19.2-58.7-32.5-54.2-83.4-75.2-83.4-75.2s-62.4-16.5-93.2 21.3z"  p-id="6806"></path><path d="M478 843.1c0-12.3 10.8-22.4 24-22.4 13.3 0 24 10.1 24 22.4 0 12.3-10.8 22.3-24 22.3-13.3 0-24-10-24-22.3z m-86.6-285.7l-9.3 52-7.6 42.5c-80.5 10.5-200.6 73.4-200.6 73.4-80.6 70.4-84.3 190.2-84.3 190.2C241.7 960 490 960 490 960c316.3-3.7 444.4-48.4 444.4-48.4-1.6-122.7-94.6-185.5-94.6-185.5-79.1-37.4-147.7-55.7-190.3-64.4l-23.3-104.3s-32.7 26.8-100.2 31.4v62h-48v-62.4c-30.4-1.6-63.9-7.5-86.6-31z" p-id="6807"></path></svg>