<svg data-v-1e121de1="" version="1.0" xmlns="http://www.w3.org/2000/svg" xmlns:xlink="http://www.w3.org/1999/xlink" width="100%" height="100%" viewBox="0 0 340.000000 250.000000" preserveAspectRatio="xMidYMid meet" color-interpolation-filters="sRGB" class="el-tooltip" style="margin: auto;"><rect data-v-1e121de1="" x="0" y="0" width="100%" height="100%" fill="#fff" fill-opacity="1" class="background"></rect> <rect data-v-1e121de1="" x="0" y="0" width="100%" height="100%" fill="url(#watermark)" fill-opacity="1" class="watermarklayer"></rect> <g data-v-1e121de1="" fill="#727171" class="icon-text-wrapper icon-svg-group iconsvg" transform="translate(86.25,75.74530792236328)"><g class="iconsvg-imagesvg" transform="translate(53.75,0)"><rect fill="#727171" fill-opacity="0" stroke-width="2" x="0" y="0" width="60" height="59.27045985970364" class="image-rect"></rect> <svg x="0" y="0" width="60" height="59.27045985970364" filtersec="colorsb8282775504" class="image-svg-svg primary"><svg xmlns="http://www.w3.org/2000/svg" viewBox="0 0 64.15 63.37"><g><g><path d="M5.86 29.33a.85.85 0 0 1-.77-1.2C8.44 20.79 21 14.39 28.46 10.72A21.94 21.94 0 0 0 23 8.49a3.67 3.67 0 0 1-3.1-3.12c-.2-1.89 1.16-3.79 3.46-4.83a3.81 3.81 0 0 1 3.7-.12 3.85 3.85 0 0 1 1.52 3 .85.85 0 0 1-.83.87.87.87 0 0 1-.87-.83 2.2 2.2 0 0 0-.73-1.62 2.48 2.48 0 0 0-2.09.23c-2 .9-2.57 2.23-2.48 3.1a2 2 0 0 0 1.77 1.63 26.69 26.69 0 0 1 7.34 3.24.85.85 0 0 1-.09 1.48l-.43.21C24.39 14.61 14.49 19.46 9.3 25c6.83-4.48 21.65-12.91 38-14a.85.85 0 0 1 .12 1.7C25.66 14.19 6.58 29 6.39 29.15a.85.85 0 0 1-.53.18z" fill="#727171"></path><path d="M0 63.37C51.3 39.87 15 20 8.13 15.48c21.67 11.64 28.82 11.08 31.7-6.29 1.06 6 1.89 12.75 4.47 18.53a26.52 26.52 0 0 0 4.7 6.5c4.92 5.43 10 10.76 15.13 16.18C52.6 56.46 14.67 63.31 0 63.37" fill="#e8410b" fill-rule="evenodd"></path></g></g></svg></svg> <!----></g> <g transform="translate(0,66.27194213867188)"><g fill-rule="" class="tp-name iconsvg-namesvg"><g><path d="M15.18-26.26L15.18-26.26L28.89-26.26Q29.33-26.21 29.33-25.86L29.33-25.86L29.33-24.52Q29.33-24.24 28.94-24.10L28.94-24.10L9.12-24.10Q7.36-24.10 7.36-23.47L7.36-23.47Q7.36-22.79 9.87-21.18L9.87-21.18Q20.00-14.30 22.68-12.52L22.68-12.52Q25.11-10.90 26.28-10.06L26.28-10.06Q29.18-7.76 29.18-6.20L29.18-6.20Q29.18-4.24 24.76-3.54L24.76-3.54Q23.36-3.30 19.47-3.30L19.47-3.30L1.96-3.30Q1.56-3.36 1.56-3.76L1.56-3.76L1.56-4.97Q1.56-5.32 1.96-5.43L1.96-5.43L21.12-5.43Q22.98-5.43 23.66-5.84L23.66-5.84Q23.88-6.00 23.88-6.20L23.88-6.20Q23.88-6.64 22.59-7.36L22.59-7.36Q21.31-8.17 13.18-13.45L13.18-13.45L5.93-18.15Q5.36-18.54 4.75-19.05L4.75-19.05Q2.24-21.20 2.24-23.01L2.24-23.01Q2.24-24.85 4.79-25.75L4.79-25.75Q5.60-26.02 6.72-26.15L6.72-26.15Q6.99-26.19 7.80-26.24L7.80-26.24Q12.41-26.26 15.18-26.26ZM33.40-20.28L33.40-20.28L51.92-20.28Q52.67-20.28 52.98-20.00L52.98-20.00Q53.37-19.71 53.37-19.38L53.37-19.38L53.37-5.21Q53.37-4.66 52.71-4.42L52.71-4.42Q52.62-4.39 52.54-4.39L52.54-4.39L33.93-4.39Q33.27-4.39 32.89-4.92L32.89-4.92Q32.87-4.99 32.83-5.12L32.83-5.12Q32.81-8.26 32.81-10.11L32.81-10.11L32.81-13.14Q32.81-13.67 33.64-13.91L33.64-13.91Q33.79-13.91 33.79-13.95L33.79-13.95Q35.24-13.95 35.93-13.95L35.93-13.95L48.60-13.95L48.60-17.69Q48.60-17.93 48.34-18.06L48.34-18.06Q48.32-18.08 48.23-18.08L48.23-18.08L33.29-18.08Q32.94-18.08 32.81-18.44L32.81-18.44L32.81-19.89Q32.89-20.26 33.18-20.26L33.18-20.26Q33.24-20.28 33.40-20.28ZM48.19-11.82L37.55-11.82L37.55-7.01Q37.55-6.64 37.92-6.53L37.92-6.53L48.60-6.53L48.60-11.45Q48.60-11.76 48.19-11.82L48.19-11.82ZM58.62-27.33L58.62-27.33L61.13-27.33Q61.81-27.33 62.18-26.76L62.18-26.76Q62.25-26.63 62.25-26.43L62.25-26.43L62.25-9.43Q62.25-8.02 62.27-5.21L62.27-5.21Q62.27-4.83 61.66-4.48L61.66-4.48Q61.41-4.39 61.15-4.39L61.15-4.39L58.62-4.39Q58.10-4.39 57.68-4.83L57.68-4.83Q57.52-5.01 57.52-5.14L57.52-5.14Q57.50-16.41 57.50-25.14L57.50-25.14L57.50-26.50Q57.50-27.11 58.43-27.31L58.43-27.31Q58.51-27.33 58.62-27.33ZM67.52-27.36L67.52-27.36L70.03-27.36Q70.66-27.36 71.08-26.83L71.08-26.83Q71.15-26.65 71.15-26.56L71.15-26.56Q71.17-23.95 71.17-23.25L71.17-23.25Q71.17-22.87 70.49-22.54L70.49-22.54Q70.20-22.46 69.94-22.46L69.94-22.46L67.68-22.46Q66.73-22.46 66.47-23.12L66.47-23.12Q66.42-23.20 66.42-23.38L66.42-23.38L66.42-24.96Q66.42-25.60 66.40-26.56L66.40-26.56Q66.40-26.96 67.02-27.27L67.02-27.27Q67.28-27.36 67.52-27.36ZM67.52-20.52L67.52-20.52L70.03-20.52Q70.71-20.52 71.08-19.93L71.08-19.93Q71.15-19.78 71.15-19.71L71.15-19.71Q71.17-10.77 71.17-5.21L71.17-5.21Q71.17-4.79 70.53-4.48L70.53-4.48Q70.29-4.39 70.05-4.39L70.05-4.39L67.57-4.39Q66.86-4.39 66.49-4.97L66.49-4.97Q66.42-5.14 66.42-5.27L66.42-5.27L66.42-12.99Q66.42-15.42 66.40-19.71L66.40-19.71Q66.40-20.15 67.06-20.43L67.06-20.43Q67.32-20.52 67.52-20.52ZM75.98-20.26L75.98-20.26L94.39-20.26Q95.10-20.26 95.43-19.80L95.43-19.80Q95.60-19.62 95.60-19.42L95.60-19.42L95.60-17.01Q95.60-15.03 95.58-11.45L95.58-11.45Q95.54-11.21 95.32-11.03L95.32-11.03Q94.92-10.70 94.44-10.70L94.44-10.70L79.80-10.70L79.80-9.62Q79.80-8.83 79.78-7.32L79.78-7.32Q79.78-6.99 80.20-6.64L80.20-6.64Q80.44-6.53 80.62-6.53L80.62-6.53L95.16-6.53Q95.47-6.53 95.60-6.20L95.60-6.20L95.60-4.83Q95.56-4.39 95.16-4.39L95.16-4.39L77.74-4.39Q76.75-4.39 75.92-5.12L75.92-5.12Q75.34-5.73 75.23-6.15L75.23-6.15Q75.10-6.37 75.04-7.01L75.04-7.01Q75.10-16.90 75.10-19.38L75.10-19.38Q75.10-20.02 75.78-20.24L75.78-20.24Q75.87-20.26 75.98-20.26ZM90.83-18.08L79.85-18.08L79.83-12.83L90.42-12.83Q90.77-12.83 90.83-13.23L90.83-13.23L90.83-18.08ZM100.96-20.28L100.96-20.28L116.30-20.28L116.37-20.26Q116.41-20.28 116.48-20.28L116.48-20.28L118.56-20.28Q119.36-20.28 119.69-19.95L119.69-19.95Q119.95-19.78 120.01-19.51L120.01-19.51Q120.04-13.14 120.04-9.69L120.04-9.69L120.04-5.23Q120.04-4.75 119.27-4.46L119.27-4.46Q119.07-4.39 118.89-4.39L118.89-4.39L116.39-4.39Q115.69-4.39 115.33-4.99L115.33-4.99Q115.27-5.16 115.27-5.36L115.27-5.36L115.27-18.08L104.22-18.08L104.22-5.21Q104.22-4.72 103.43-4.44L103.43-4.44Q103.23-4.39 103.10-4.39L103.10-4.39L100.59-4.39Q99.93-4.39 99.56-4.92L99.56-4.92Q99.54-4.99 99.49-5.12L99.49-5.12Q99.47-10.55 99.47-13.91L99.47-13.91L99.47-19.42Q99.47-19.97 100.28-20.21L100.28-20.21Q100.46-20.28 100.96-20.28ZM125.73-20.28L125.73-20.28L143.72-20.28Q143.96-20.28 144.10-20.17L144.10-20.17Q144.27-20.00 144.27-19.86L144.27-19.86L144.27-18.50Q144.27-18.26 143.92-18.08L143.92-18.08Q143.83-18.08 143.79-18.08L143.79-18.08L128.98-18.08L128.98-6.53L143.85-6.53Q144.12-6.53 144.27-6.15L144.27-6.15L144.27-4.79Q144.27-4.59 143.90-4.39L143.90-4.39L125.05-4.39Q124.50-4.39 124.28-4.99L124.28-4.99Q124.23-5.16 124.23-5.27L124.23-5.27L124.23-19.42Q124.23-19.97 125.05-20.21L125.05-20.21Q125.22-20.28 125.73-20.28ZM149.15-18.06L151.39-18.06Q152.12-18.06 152.91-17.42L152.91-17.42Q153.06-17.20 154.56-14.85L154.56-14.85Q159.72-6.77 159.74-6.72L159.74-6.72L159.76-6.72Q159.81-6.81 164.60-17.34L164.60-17.34Q165.17-18.04 166.03-18.04L166.03-18.04L168.31-18.04Q168.84-18.04 169.04-17.58L169.04-17.58Q169.06-17.51 169.06-17.45L169.06-17.45L169.06-17.40Q169.06-17.29 168.18-15.38L168.18-15.38Q162.20-2.26 162.20-2.26L162.20-2.26L159.28 4.17Q158.95 4.64 158.07 4.86L158.07 4.86Q157.92 4.88 157.81 4.88L157.81 4.88L152.20 4.88Q151.92 4.88 151.79 4.50L151.79 4.50L151.79 3.16Q151.79 2.90 152.05 2.77L152.05 2.77Q152.12 2.75 152.25 2.75L152.25 2.75L155.24 2.75Q155.54 2.75 155.72 2.11L155.72 2.11Q155.81 1.98 158.97-4.97L158.97-4.97L157.61-4.97Q156.80-4.97 156.09-5.49L156.09-5.49Q155.87-5.71 155.61-6.17L155.61-6.17Q148.62-17.16 148.51-17.36L148.51-17.36Q148.45-17.47 148.45-17.56L148.45-17.56L148.45-17.62Q148.45-18.02 149.15-18.06L149.15-18.06Z" transform="translate(-1.56005859375, 27.35595703125)"></path></g> <!----> <!----> <!----> <!----> <!----> <!----> <!----></g> <!----></g></g></svg>